<svg width="256" height="256" viewBox="0 0 256 256" fill="none" xmlns="http://www.w3.org/2000/svg">
<path fill-rule="evenodd" clip-rule="evenodd" d="M115.03 46.474C98.0023 46.474 83.5313 61.1551 83.5313 80.1107V162.206C83.5313 188.719 103.809 209.526 128 209.526C152.191 209.526 172.469 188.719 172.469 162.206V80.1107H187.292V162.206C187.292 196.149 161.114 224.349 128 224.349C94.8856 224.349 68.7084 196.149 68.7084 162.206V80.1107C68.7084 53.7257 89.0787 31.6511 115.03 31.6511C140.981 31.6511 161.352 53.7257 161.352 80.1107V162.206C161.352 181.035 146.789 196.984 128 196.984C109.211 196.984 94.6485 181.035 94.6485 162.206V80.1107H109.471V162.206C109.471 173.605 118.136 182.161 128 182.161C137.864 182.161 146.529 173.605 146.529 162.206V80.1107C146.529 61.1551 132.058 46.474 115.03 46.474Z" />
</svg>
