<svg width="256" height="256" viewBox="0 0 256 256" fill="none" xmlns="http://www.w3.org/2000/svg">
<path d="M94.3705 101C94.3705 109.865 97.8921 118.367 104.161 124.635C110.429 130.904 118.931 134.425 127.796 134.425V67.5748C118.931 67.5748 110.429 71.0963 104.161 77.3648C97.8921 83.6332 94.3705 92.1351 94.3705 101Z" fill="black"/>
<path d="M127.796 27.4644C113.252 27.4644 99.0345 31.7772 86.9416 39.8574C74.8488 47.9375 65.4235 59.4222 59.8578 72.8591C54.2921 86.296 52.8358 101.081 55.6732 115.346C58.5106 129.61 65.5142 142.713 75.7983 152.997C86.0824 163.282 99.1852 170.285 113.45 173.122C127.714 175.96 142.5 174.504 155.937 168.938C169.373 163.372 180.858 153.947 188.938 141.854C197.019 129.761 201.331 115.544 201.331 101C201.376 91.3307 199.504 81.7485 195.824 72.8068C192.144 63.8651 186.729 55.741 179.892 48.9038C173.055 42.0665 164.931 36.6516 155.989 32.9718C147.047 29.292 137.465 27.4201 127.796 27.4644ZM67.6303 101C67.7181 85.0701 74.0851 69.8178 85.3494 58.5535C96.6136 47.2893 111.866 40.9223 127.796 40.8345V67.5747C136.661 67.5747 145.163 71.0963 151.431 77.3647C157.699 83.6332 161.221 92.135 161.221 101C161.221 109.865 157.699 118.367 151.431 124.635C145.163 130.904 136.661 134.425 127.796 134.425V161.165C111.866 161.078 96.6136 154.711 85.3494 143.446C74.0851 132.182 67.7181 116.93 67.6303 101Z" fill="black"/>
<path d="M222.528 21.7998C232.999 21.7999 241.571 30.0827 241.571 40.5859V162.204C241.571 172.707 232.999 181.622 222.528 181.622H148.58V213.142H202.541C210.473 213.142 211.113 239.253 212.067 240.2H43.5342C43.5342 240.2 43.5344 213.142 53.0605 213.142H107.021V181.622H32.748C22.2771 181.622 14.0205 172.707 14.0205 162.204V40.5859C14.0205 30.0828 22.2771 21.8 32.748 21.7998H222.528ZM127.997 24.9658C127.994 24.9658 127.991 24.9648 127.988 24.9648V24.9658C112.954 24.9681 98.2576 29.4266 85.7568 37.7793C84.4176 38.6741 83.1123 39.6122 81.8379 40.5859H32.7285V162.204H82.8867C91.8388 168.802 102.168 173.387 113.166 175.574C127.915 178.508 143.203 177.003 157.097 171.248C162.812 168.881 168.185 165.836 173.112 162.204H222.528V40.5859H174.389C169.113 36.542 163.317 33.2007 157.144 30.6602C147.9 26.8562 137.995 24.9215 127.999 24.9658V24.9648L127.997 24.9658ZM164.052 162.204C161.213 163.876 158.252 165.358 155.184 166.629C142.204 172.005 127.92 173.412 114.141 170.671C106.278 169.107 98.7818 166.23 91.9473 162.204H164.052ZM128.011 29.9648C137.35 29.9221 146.605 31.73 155.241 35.2842C158.844 36.7669 162.309 38.5419 165.604 40.5859H90.6357C101.847 33.6518 114.783 29.965 127.999 29.9648H128.011Z" fill="black"/>
</svg>
