<svg width="256" height="256" viewBox="0 0 256 256" fill="none" xmlns="http://www.w3.org/2000/svg">
<rect width="256" height="256" fill="transparent"/>
<g clip-path="url(#clip0_1_284)">
<path d="M212.883 42.75H43.1163C29.2662 42.75 18 54.0173 18 67.8663V188.133C18 201.982 29.2673 213.249 43.1163 213.249H212.883C226.732 213.249 238 201.982 238 188.133V67.8663C238 54.0173 226.732 42.75 212.883 42.75ZM128 200.05H43.1163C36.546 200.05 31.2 194.705 31.2 188.134V67.8663C31.2 61.2949 36.546 55.95 43.1163 55.95H128V200.05ZM218.838 101.742C218.236 111.801 212.603 131.729 195.882 145.571C200.959 146.696 206.474 147.302 212.294 147.302V160.502C200.688 160.502 190.032 158.391 180.978 154.644C172.52 158.275 162.312 160.502 150.041 160.502V147.302C155.686 147.302 160.957 146.751 165.843 145.654C156.59 137.936 151.123 127.712 151.123 116.196H164.322C164.322 125.939 170.548 134.365 180.694 139.981C185.799 137.055 190.267 133.258 194.075 128.595C200.266 121.021 203.427 112.622 204.804 106.549H150.041V93.3489H174.567V80.1643H187.767V93.35H210.928C213.112 93.35 215.22 94.2641 216.712 95.858C218.185 97.4189 218.967 99.5705 218.838 101.742Z" fill="black"/>
<path d="M65.3385 148.088L60.4435 160.472H42.8754L71.8659 93.273H89.434L117.755 160.472H99.5133L94.714 148.088H65.3385ZM80.1225 110.264L70.3303 135.128H89.7222L80.1225 110.264Z" fill="black"/>
</g>
<defs>
<clipPath id="clip0_1_284">
<rect width="220" height="220" fill="white" transform="translate(18 18)"/>
</clipPath>
</defs>
</svg>
